<svg class="svg-icon" style="width: 1em;height: 1em;vertical-align: middle;fill: currentColor;overflow: hidden;" viewBox="0 0 1024 1024" version="1.1" xmlns="http://www.w3.org/2000/svg"><path d="M810.977 279.151c-16.673-39.418-40.535-74.814-70.925-105.204-30.389-30.39-65.784-54.252-105.203-70.925C594.023 85.755 550.673 77 506 77c-44.672 0-88.023 8.755-128.849 26.023-39.418 16.673-74.814 40.535-105.204 70.925-30.39 30.389-54.252 65.785-70.925 105.204C183.755 319.977 175 363.328 175 408c0 63.162 35.794 150.642 109.427 267.44 58.19 92.302 125.549 179.714 165.794 231.94 12.751 16.547 22.823 29.617 28.066 36.996 6.365 8.96 16.725 14.31 27.712 14.31s21.348-5.35 27.712-14.308c5.243-7.381 15.314-20.45 28.064-36.996 40.246-52.227 107.604-139.637 165.795-231.94C801.206 558.644 837 471.162 837 408c0-44.672-8.756-88.023-26.023-128.849zM680.2 645.577c-56.786 90.074-123.138 176.179-162.781 227.624-4.16 5.399-7.968 10.341-11.419 14.837-3.451-4.497-7.26-9.439-11.421-14.84-39.644-51.445-105.995-137.55-162.78-227.623C248.488 513.426 231 443.44 231 408c0-151.636 123.365-275 275-275 151.636 0 275 123.364 275 275 0 35.44-17.488 105.427-100.8 237.577z"  /><path d="M506 247c-93.738 0-170 76.262-170 170s76.262 170 170 170 170-76.262 170-170-76.262-170-170-170z m0 284c-62.86 0-114-51.14-114-114s51.14-114 114-114c62.859 0 114 51.14 114 114s-51.141 114-114 114z"  /></svg>