<svg xmlns:xlink="http://www.w3.org/1999/xlink" width="24" height="24" viewBox="0 0 24 24" fill="none" xmlns="http://www.w3.org/2000/svg"><path fill-rule="evenodd" clip-rule="evenodd" d="M14 18C18.4183 18 22 14.4183 22 10C22 5.58172 18.4183 2 14 2C9.58172 2 6 5.58172 6 10C6 11.8487 6.62708 13.551 7.68014 14.9056L2.29289 20.2929L3.70711 21.7071L9.09436 16.3199C10.449 17.3729 12.1513 18 14 18ZM8 10C8 13.3137 10.6863 16 14 16C17.3137 16 20 13.3137 20 10C20 6.68629 17.3137 4 14 4C10.6863 4 8 6.68629 8 10Z" fill="#4C4C4C"></path></svg>